<?xml version="1.0" standalone="no"?>
<!DOCTYPE svg PUBLIC "-//W3C//DTD SVG 20010904//EN"
 "http://www.w3.org/TR/2001/REC-SVG-20010904/DTD/svg10.dtd">
<svg version="1.0" xmlns="http://www.w3.org/2000/svg"
 width="70.000000pt" height="70.000000pt" viewBox="0 0 70.000000 70.000000"
 preserveAspectRatio="xMidYMid meet">
<metadata>
Created by potrace 1.11, written by Peter Selinger 2001-2013
</metadata>
<g transform="translate(0.000000,70.000000) scale(0.100000,-0.100000)"
fill="#000000" stroke="none">
<path d="M68 684 c-62 -26 -68 -55 -68 -342 0 -357 -15 -342 352 -342 362 0
348 -13 347 345 -1 261 -6 294 -53 329 -26 20 -43 21 -284 23 -213 2 -263 0
-294 -13z m510 -72 c29 -16 52 -69 52 -117 0 -33 -2 -35 -32 -35 -18 -1 -43
-9 -55 -19 -20 -17 -23 -29 -23 -91 0 -62 3 -74 23 -91 12 -10 37 -18 55 -19
30 0 32 -2 32 -35 0 -20 -7 -51 -15 -71 -23 -56 -56 -64 -265 -64 -242 0 -261
8 -276 118 l-7 52 33 0 c56 0 70 22 70 111 0 89 -12 109 -66 109 -29 0 -34 3
-34 24 0 71 35 129 83 139 12 3 108 4 212 3 136 -1 197 -5 213 -14z"/>
<path d="M238 490 l-38 -39 0 -111 c0 -170 29 -210 150 -210 119 0 150 41 150
200 0 56 -5 111 -11 123 -15 29 -50 56 -71 57 -10 0 -18 5 -18 10 0 6 -27 10
-62 10 -60 0 -65 -2 -100 -40z m211 -24 c24 -25 26 -34 29 -129 3 -99 3 -103
-25 -139 -20 -26 -38 -38 -65 -43 -99 -17 -158 26 -166 121 -6 74 6 159 26
185 38 46 157 49 201 5z"/>
<path d="M346 451 c-4 -6 -4 -21 -1 -34 4 -15 3 -18 -3 -9 -7 11 -11 8 -16
-11 -6 -24 -9 -25 -38 -16 -18 5 -35 9 -37 9 -12 0 8 -113 23 -128 24 -24 129
-24 153 1 24 24 26 148 3 171 -20 20 -76 31 -84 17z m-46 -110 c1 -32 21 -61
44 -61 9 0 16 -4 16 -10 0 -5 -7 -10 -15 -10 -17 0 -65 21 -65 29 -1 3 -4 25
-9 47 -7 37 -6 41 11 36 11 -3 18 -14 18 -31z"/>
</g>
</svg>
